<?xml version="1.0" encoding="iso-8859-1"?>
<!-- Generator: Adobe Illustrator 19.0.0, SVG Export Plug-In . SVG Version: 6.00 Build 0)  -->
<svg version="1.1" id="Layer_1" xmlns="http://www.w3.org/2000/svg" xmlns:xlink="http://www.w3.org/1999/xlink" x="0px" y="0px"
	 viewBox="0 0 512 512" style="enable-background:new 0 0 512 512;" xml:space="preserve">
<path style="fill:#5B5D6E;" d="M428.914,476.69H83.086c-2.311,0-4.526-0.905-6.182-2.517C27.31,425.587,0,360.647,0,291.31
	c0-141.155,114.845-256,256-256s256,114.845,256,256c0,69.336-27.31,134.276-76.905,182.862
	C433.44,475.785,431.224,476.69,428.914,476.69z"/>
<circle style="fill:#7C5E6C;" cx="256" cy="291.31" r="114.759"/>
<path style="fill:#464655;" d="M428.914,476.69H83.086c-2.311,0-4.526-0.905-6.182-2.517C27.31,425.587,0,360.647,0,291.31
	c0-141.155,114.845-256,256-256s256,114.845,256,256c0,69.336-27.31,134.276-76.905,182.862
	C433.44,475.785,431.224,476.69,428.914,476.69z M86.724,459.034h338.552c44.568-44.94,69.068-104.362,69.068-167.724
	c0-131.423-106.922-238.345-238.345-238.345S17.655,159.887,17.655,291.31C17.655,354.673,42.155,414.094,86.724,459.034z"/>
<path style="fill:#FF6464;" d="M225.103,331.034c-2.259,0-4.518-0.862-6.241-2.586c-3.448-3.448-3.448-9.035,0-12.483
	l132.414-132.414c3.448-3.448,9.035-3.448,12.483,0s3.448,9.035,0,12.483L231.346,328.448
	C229.621,330.173,227.362,331.034,225.103,331.034z"/>
<circle style="fill:#464655;" cx="256" cy="291.31" r="26.483"/>
<g>
	<path style="fill:#FFFFFF;" d="M70.621,300.138H44.138c-4.879,0-8.828-3.948-8.828-8.828c0-4.879,3.948-8.828,8.828-8.828h26.483
		c4.879,0,8.828,3.948,8.828,8.828C79.448,296.19,75.5,300.138,70.621,300.138z"/>
	<path style="fill:#FFFFFF;" d="M467.862,300.138h-26.483c-4.879,0-8.828-3.948-8.828-8.828c0-4.879,3.948-8.828,8.828-8.828h26.483
		c4.879,0,8.828,3.948,8.828,8.828C476.69,296.19,472.742,300.138,467.862,300.138z"/>
	<path style="fill:#FFFFFF;" d="M256,114.759c-4.879,0-8.828-3.948-8.828-8.828V79.448c0-4.879,3.948-8.828,8.828-8.828
		c4.879,0,8.828,3.948,8.828,8.828v26.483C264.828,110.81,260.879,114.759,256,114.759z"/>
	<path style="fill:#FFFFFF;" d="M124.914,169.052c-2.259,0-4.518-0.862-6.241-2.586l-18.724-18.724
		c-3.448-3.448-3.448-9.035,0-12.483c3.448-3.448,9.035-3.448,12.483,0l18.724,18.724c3.448,3.448,3.448,9.035,0,12.483
		C129.431,168.19,127.172,169.052,124.914,169.052z"/>
	<path style="fill:#FFFFFF;" d="M387.086,169.052c-2.259,0-4.518-0.862-6.241-2.586c-3.448-3.448-3.448-9.035,0-12.483
		l18.724-18.724c3.448-3.448,9.035-3.448,12.483,0c3.448,3.448,3.448,9.035,0,12.483l-18.724,18.724
		C391.604,168.19,389.345,169.052,387.086,169.052z"/>
	<path style="fill:#FFFFFF;" d="M60.267,381.216c-3.457,0-6.75-2.051-8.156-5.449c-1.863-4.5,0.276-9.673,4.776-11.534
		l24.466-10.138c4.474-1.845,9.673,0.276,11.534,4.776c1.862,4.5-0.276,9.673-4.776,11.534l-24.466,10.138
		C62.543,381,61.397,381.216,60.267,381.216z"/>
	<path style="fill:#FFFFFF;" d="M427.267,229.198c-3.457,0-6.75-2.051-8.156-5.449c-1.863-4.5,0.276-9.673,4.776-11.534
		l24.466-10.138c4.483-1.854,9.673,0.267,11.534,4.776c1.863,4.5-0.276,9.673-4.776,11.534l-24.466,10.138
		C429.543,228.983,428.396,229.198,427.267,229.198z"/>
	<path style="fill:#FFFFFF;" d="M185.06,128.871c-3.457,0-6.75-2.051-8.156-5.449l-10.138-24.466
		c-1.863-4.5,0.276-9.673,4.776-11.534c4.491-1.854,9.673,0.267,11.534,4.776l10.138,24.466c1.863,4.5-0.276,9.673-4.776,11.534
		C187.336,128.655,186.189,128.871,185.06,128.871z"/>
	<path style="fill:#FFFFFF;" d="M84.733,229.198c-1.129,0-2.276-0.215-3.38-0.672l-24.466-10.138
		c-4.5-1.863-6.638-7.034-4.776-11.534c1.863-4.509,7.052-6.63,11.534-4.776l24.466,10.138c4.5,1.863,6.638,7.034,4.776,11.534
		C91.482,227.147,88.19,229.198,84.733,229.198z"/>
	<path style="fill:#FFFFFF;" d="M451.733,381.216c-1.129,0-2.276-0.215-3.38-0.672l-24.466-10.138
		c-4.5-1.863-6.638-7.034-4.776-11.534c1.863-4.509,7.052-6.621,11.534-4.776l24.466,10.138c4.5,1.863,6.638,7.034,4.776,11.534
		C458.483,379.164,455.19,381.216,451.733,381.216z"/>
	<path style="fill:#FFFFFF;" d="M326.94,128.871c-1.129,0-2.276-0.215-3.38-0.672c-4.5-1.863-6.638-7.034-4.776-11.534
		l10.138-24.466c1.87-4.509,7.06-6.63,11.534-4.776c4.5,1.863,6.638,7.034,4.776,11.534l-10.138,24.466
		C333.689,126.819,330.397,128.871,326.94,128.871z"/>
</g>
<g>
	<path style="fill:#FF6464;" d="M413.87,441.379c-2.103,0-4.207-0.742-5.888-2.25c-3.629-3.25-3.939-8.836-0.69-12.466
		c33.363-37.267,51.742-85.336,51.742-135.353c0-111.957-91.078-203.034-203.034-203.034S52.966,179.353,52.966,291.31
		c0,50.017,18.379,98.087,51.742,135.353c3.25,3.629,2.94,9.216-0.69,12.466c-3.612,3.25-9.216,2.948-12.466-0.69
		C55.285,397.931,35.31,345.681,35.31,291.31c0-121.689,99-220.69,220.69-220.69s220.69,99,220.69,220.69
		c0,54.37-19.975,106.621-56.242,147.129C418.707,440.388,416.294,441.379,413.87,441.379z"/>
	<path style="fill:#FF6464;" d="M317.793,432.552H194.207c-4.875,0-8.828-3.953-8.828-8.828v-35.31c0-4.875,3.953-8.828,8.828-8.828
		h123.586c4.875,0,8.828,3.953,8.828,8.828v35.31C326.621,428.599,322.668,432.552,317.793,432.552z"/>
</g>
<g>
	<path style="fill:#464655;" d="M220.69,423.724L220.69,423.724c-4.875,0-8.828-3.953-8.828-8.828v-17.655
		c0-4.875,3.953-8.828,8.828-8.828l0,0c4.875,0,8.828,3.953,8.828,8.828v17.655C229.517,419.772,225.565,423.724,220.69,423.724z"/>
	<path style="fill:#464655;" d="M256,423.724L256,423.724c-4.875,0-8.828-3.953-8.828-8.828v-17.655
		c0-4.875,3.953-8.828,8.828-8.828l0,0c4.875,0,8.828,3.953,8.828,8.828v17.655C264.828,419.772,260.875,423.724,256,423.724z"/>
	<path style="fill:#464655;" d="M291.31,423.724L291.31,423.724c-4.875,0-8.828-3.953-8.828-8.828v-17.655
		c0-4.875,3.953-8.828,8.828-8.828l0,0c4.875,0,8.828,3.953,8.828,8.828v17.655C300.138,419.772,296.185,423.724,291.31,423.724z"/>
</g>
<g>
</g>
<g>
</g>
<g>
</g>
<g>
</g>
<g>
</g>
<g>
</g>
<g>
</g>
<g>
</g>
<g>
</g>
<g>
</g>
<g>
</g>
<g>
</g>
<g>
</g>
<g>
</g>
<g>
</g>
</svg>
