<?xml version="1.0" encoding="iso-8859-1"?>
<!-- Generator: Adobe Illustrator 19.0.0, SVG Export Plug-In . SVG Version: 6.00 Build 0)  -->
<svg version="1.1" id="Layer_1" xmlns="http://www.w3.org/2000/svg" xmlns:xlink="http://www.w3.org/1999/xlink" x="0px" y="0px"
	 viewBox="0 0 512 512" style="enable-background:new 0 0 512 512;" xml:space="preserve">
<g>
	<path style="fill:#22ACDD;" d="M20.944,122.28l14.896,57.264c3.28,12.56,6.304,24.208,8.384,35.824h0.688
		c2.56-11.392,6.304-23.504,10.032-35.6l18.384-57.488H90.56l17.456,56.32c4.176,13.504,7.44,25.36,10,36.768h0.688
		c1.872-11.392,4.896-23.264,8.608-36.528l16.08-56.56h20.224l-36.304,112.656h-18.608l-17.232-53.76
		c-3.952-12.576-7.2-23.744-10-37.008h-0.464c-2.8,13.504-6.304,25.136-10.256,37.232l-18.144,53.536H34L0,122.28H20.944z"/>
	<path style="fill:#22ACDD;" d="M195.12,122.28l14.896,57.264c3.28,12.56,6.304,24.208,8.384,35.824h0.688
		c2.56-11.392,6.304-23.504,10.032-35.6l18.384-57.488h17.232l17.456,56.32c4.176,13.504,7.44,25.36,10,36.768h0.688
		c1.872-11.392,4.896-23.264,8.608-36.528l16.08-56.56h20.224l-36.304,112.656H282.88l-17.232-53.76
		c-3.952-12.576-7.2-23.744-10-37.008H255.2c-2.8,13.504-6.304,25.136-10.256,37.232L226.8,234.936h-18.608l-34-112.656H195.12z"/>
	<path style="fill:#22ACDD;" d="M369.328,122.28l14.896,57.264c3.28,12.56,6.304,24.208,8.384,35.824h0.688
		c2.56-11.392,6.304-23.504,10.032-35.6l18.384-57.488h17.232L456.4,178.6c4.176,13.504,7.44,25.36,10,36.768h0.688
		c1.872-11.392,4.896-23.264,8.608-36.528l16.08-56.56H512l-36.304,112.656h-18.608l-17.232-53.76
		c-3.952-12.576-7.2-23.744-10-37.008h-0.464c-2.8,13.504-6.304,25.136-10.256,37.232l-18.144,53.536h-18.608l-34-112.656H369.328z"
		/>
</g>
<g>
	<path style="fill:#FF6600;" d="M20.944,277.048l14.896,57.28c3.28,12.56,6.304,24.208,8.384,35.808h0.688
		c2.56-11.376,6.304-23.488,10.032-35.584l18.384-57.504H90.56l17.456,56.32c4.176,13.504,7.44,25.376,10,36.768h0.688
		c1.872-11.376,4.896-23.248,8.608-36.528l16.08-56.56h20.224l-36.304,112.656h-18.608l-17.232-53.76
		c-3.952-12.56-7.2-23.744-10-36.992h-0.464c-2.8,13.488-6.304,25.12-10.256,37.232L52.608,389.72H34L0,277.048H20.944z"/>
	<path style="fill:#FF6600;" d="M195.12,277.048l14.896,57.28c3.28,12.56,6.304,24.208,8.384,35.808h0.688
		c2.56-11.376,6.304-23.488,10.032-35.584l18.384-57.504h17.232l17.456,56.32c4.176,13.504,7.44,25.376,10,36.768h0.688
		c1.872-11.376,4.896-23.248,8.608-36.528l16.08-56.56h20.224l-36.304,112.656H282.88l-17.232-53.76
		c-3.952-12.56-7.2-23.744-10-36.992H255.2c-2.8,13.488-6.304,25.12-10.256,37.232L226.8,389.72h-18.608l-34-112.656h20.928V277.048
		z"/>
	<path style="fill:#FF6600;" d="M369.328,277.048l14.896,57.28c3.28,12.56,6.304,24.208,8.384,35.808h0.688
		c2.56-11.376,6.304-23.488,10.032-35.584l18.384-57.504h17.232l17.456,56.32c4.176,13.504,7.44,25.376,10,36.768h0.688
		c1.872-11.376,4.896-23.248,8.608-36.528l16.08-56.56H512l-36.304,112.656h-18.608l-17.232-53.76
		c-3.952-12.56-7.2-23.744-10-36.992h-0.464c-2.8,13.488-6.304,25.12-10.256,37.232l-18.144,53.536h-18.608l-34-112.656h20.944
		V277.048z"/>
</g>
<g>
</g>
<g>
</g>
<g>
</g>
<g>
</g>
<g>
</g>
<g>
</g>
<g>
</g>
<g>
</g>
<g>
</g>
<g>
</g>
<g>
</g>
<g>
</g>
<g>
</g>
<g>
</g>
<g>
</g>
</svg>
